<?xml version="1.0" standalone="no"?>
<!DOCTYPE svg PUBLIC "-//W3C//DTD SVG 20010904//EN"
 "http://www.w3.org/TR/2001/REC-SVG-20010904/DTD/svg10.dtd">
<svg version="1.0" xmlns="http://www.w3.org/2000/svg"
 width="1200.000000pt" height="1358.000000pt" viewBox="0 0 1200.000000 1358.000000"
 preserveAspectRatio="xMidYMid meet">

<g transform="translate(0.000000,1358.000000) scale(0.100000,-0.100000)"
fill="#fff" stroke="none">
<path d="M5840 13565 c-198 -40 -366 -140 -566 -340 -534 -533 -946 -1492
-1219 -2840 -20 -99 -38 -185 -40 -191 -2 -6 -77 14 -192 53 -689 234 -1306
380 -1853 439 -205 23 -699 26 -860 6 -547 -68 -880 -246 -1025 -547 -66 -138
-79 -202 -79 -390 0 -127 5 -181 22 -263 90 -414 372 -944 767 -1437 299 -373
814 -896 1228 -1246 l28 -24 -98 -85 c-311 -270 -731 -682 -962 -945 -536
-611 -852 -1158 -962 -1665 -30 -141 -33 -389 -5 -495 71 -270 290 -529 543
-639 150 -65 268 -78 798 -92 454 -11 824 28 1330 141 354 79 837 220 1175
343 74 27 136 48 137 48 1 -1 21 -92 43 -201 182 -884 443 -1659 734 -2180
356 -638 750 -984 1151 -1012 364 -24 709 209 1047 707 119 176 185 291 298
523 247 508 455 1159 615 1922 25 121 48 226 50 232 3 9 37 1 122 -29 689
-242 1342 -397 1973 -470 143 -16 954 -15 1098 2 122 15 259 59 357 117 192
112 384 359 445 573 27 95 37 282 21 403 -68 510 -395 1099 -976 1757 -231
262 -686 704 -1038 1007 -20 18 -37 34 -37 37 0 2 78 73 173 157 225 199 761
736 913 914 462 541 759 1022 897 1450 59 185 71 261 72 445 0 143 -3 176 -23
244 -69 237 -223 412 -467 531 -173 84 -371 137 -630 167 -185 22 -681 16
-905 -11 -544 -65 -1073 -189 -1733 -407 -142 -47 -261 -83 -264 -81 -3 3 -24
99 -48 214 -233 1119 -539 1933 -937 2496 -179 252 -380 453 -558 557 -179
105 -378 142 -560 105z m305 -477 c196 -63 412 -277 608 -601 247 -408 455
-969 617 -1672 52 -224 136 -647 146 -736 l6 -54 -204 -79 c-367 -142 -895
-374 -1210 -532 -59 -30 -115 -54 -123 -54 -9 0 -48 16 -88 36 -301 152 -1042
472 -1410 609 -26 10 -50 22 -53 26 -6 11 44 288 101 564 190 906 433 1557
756 2030 271 396 566 556 854 463z m-4450 -2778 c607 -44 1256 -198 2063 -490
150 -54 172 -65 172 -84 0 -11 -13 -113 -29 -226 -55 -379 -99 -789 -130
-1193 -10 -130 -20 -239 -22 -241 -2 -1 -101 -70 -219 -151 -355 -245 -706
-505 -1008 -747 -76 -62 -127 -96 -135 -92 -20 12 -240 199 -412 348 -195 171
-655 629 -789 786 -347 407 -597 801 -695 1095 -64 195 -77 348 -41 490 55
214 206 359 456 438 211 67 479 89 789 67z m9135 -15 c258 -40 430 -114 550
-236 106 -107 150 -226 150 -407 0 -171 -41 -322 -151 -550 -204 -427 -578
-905 -1085 -1388 -322 -308 -727 -652 -747 -637 -6 6 -88 71 -182 145 -299
236 -644 491 -972 717 l-191 132 -6 72 c-3 40 -11 133 -16 207 -30 375 -84
844 -140 1209 -17 107 -29 195 -28 196 7 7 438 158 583 205 570 184 1117 304
1550 340 72 5 148 12 170 14 82 8 423 -4 515 -19z m-3210 -941 c36 -283 103
-963 96 -971 -2 -2 -243 145 -436 267 -148 93 -384 227 -662 374 -71 37 -128
71 -128 74 0 7 53 32 380 180 234 106 714 311 718 308 2 -2 16 -107 32 -232z
m-3110 168 c222 -89 829 -355 934 -409 l28 -15 -128 -70 c-291 -157 -534 -298
-809 -467 -186 -114 -291 -173 -293 -164 -8 30 56 674 99 1011 15 111 26 171
33 169 6 -3 67 -27 136 -55z m1629 -768 c429 -224 904 -491 1266 -714 361
-221 344 -209 350 -244 10 -64 25 -663 25 -1006 0 -344 -15 -942 -26 -1007 -4
-29 -22 -43 -212 -161 -398 -247 -1191 -705 -1498 -864 l-60 -31 -235 125
c-129 69 -304 166 -389 215 -85 49 -278 160 -428 247 -151 86 -358 209 -460
273 -103 63 -206 127 -228 141 l-42 26 -8 185 c-11 241 -11 1461 0 1701 l8
186 87 54 c426 265 1635 958 1675 960 5 0 84 -39 175 -86z m-2414 -1964 c0
-390 -2 -710 -3 -710 -6 0 -245 165 -437 302 -223 159 -528 390 -531 403 -2 6
32 37 74 70 176 137 488 367 637 471 88 61 180 125 205 142 25 17 47 31 50 32
3 0 5 -319 5 -710z m4731 559 c289 -200 768 -559 757 -569 -91 -81 -970 -706
-980 -697 -1 2 2 167 7 368 5 200 8 418 5 484 -9 215 -16 565 -11 565 2 0 102
-68 222 -151z m-5928 -957 c285 -226 703 -533 1052 -772 91 -62 167 -114 169
-116 2 -2 12 -111 22 -241 31 -404 75 -814 130 -1193 16 -113 29 -215 29 -226
0 -25 -39 -40 -440 -176 -657 -221 -1213 -349 -1699 -389 -177 -15 -526 -6
-669 16 -735 114 -887 584 -442 1362 81 141 228 363 321 484 239 311 636 720
1044 1075 108 94 337 284 342 284 3 0 66 -49 141 -108z m7216 -36 c547 -460
968 -887 1262 -1278 242 -324 417 -646 490 -901 35 -124 44 -321 19 -417 -26
-101 -70 -173 -151 -249 -189 -176 -507 -251 -1013 -238 -501 12 -1107 137
-1841 380 -173 57 -480 165 -488 172 -2 2 10 99 27 216 57 398 106 845 131
1194 7 88 15 184 18 214 l7 54 160 110 c348 239 757 539 1044 765 85 67 157
122 159 122 3 0 82 -65 176 -144z m-5234 -1328 c235 -144 511 -303 749 -432
l215 -115 -100 -47 c-303 -141 -1004 -448 -1009 -442 -3 4 -40 301 -60 473
-16 146 -50 501 -61 644 l-7 94 59 -40 c32 -22 129 -83 214 -135z m3194 7
c-32 -376 -105 -1030 -116 -1041 -10 -9 -1098 473 -1098 487 0 4 111 66 248
139 359 194 706 397 926 546 28 18 51 32 52 31 1 -1 -4 -74 -12 -162z m-1496
-925 c399 -189 924 -416 1226 -531 l88 -33 -6 -54 c-21 -180 -148 -773 -231
-1077 -218 -805 -523 -1433 -842 -1735 -134 -127 -257 -192 -390 -209 -198
-24 -380 55 -573 249 -341 342 -646 1011 -864 1899 -68 272 -196 916 -185 925
2 1 87 36 189 76 353 140 750 316 1130 500 113 54 210 99 216 99 6 1 115 -48
242 -109z"/>
<path d="M5875 7469 c-170 -25 -337 -119 -432 -244 -145 -192 -185 -424 -114
-655 94 -301 430 -508 747 -460 230 35 419 171 519 373 93 189 99 391 16 589
-119 281 -418 443 -736 397z"/>
</g>
</svg>
